<?xml version="1.0" encoding="utf-8"?>
<svg version="1.1" xmlns:xlink="http://www.w3.org/1999/xlink" width="26px" height="25px" xmlns="http://www.w3.org/2000/svg">
  <g transform="matrix(1 0 0 1 -907 -337 )">
    <path d="M 25.5303225806452 3.45117845117845  C 25.8434408602151 3.84399551066218  26 4.32098765432099  26 4.88215488215488  C 26 5.44332210998877  25.8434408602151 5.92031425364759  25.5303225806452 6.31313131313131  L 13.3858064516129 21.5488215488215  L 11.1045161290323 24.4107744107744  C 10.7913978494624 24.8035914702581  10.4111827956989 25  9.96387096774194 25  C 9.51655913978495 25  9.13634408602151 24.8035914702581  8.82322580645161 24.4107744107744  L 6.54193548387097 21.5488215488215  L 0.469677419354839 13.9309764309764  C 0.156559139784946 13.5381593714927  0 13.0611672278339  0 12.5  C 0 11.9388327721661  0.156559139784946 11.4618406285073  0.469677419354839 11.0690235690236  L 2.75096774193548 8.20707070707071  C 3.06408602150538 7.81425364758698  3.44430107526882 7.61784511784512  3.89161290322581 7.61784511784512  C 4.3389247311828 7.61784511784512  4.71913978494624 7.81425364758698  5.03225806451613 8.20707070707071  L 9.96387096774194 14.4149831649832  L 20.9677419354839 0.589225589225589  C 21.2808602150538 0.196408529741862  21.6610752688172 0  22.1083870967742 0  C 22.5556989247312 0  22.9359139784946 0.196408529741862  23.2490322580645 0.589225589225589  L 25.5303225806452 3.45117845117845  Z " fill-rule="nonzero" fill="#000000" stroke="none" transform="matrix(1 0 0 1 907 337 )" />
  </g>
</svg>