<?xml version="1.0" encoding="utf-8"?>
<svg version="1.1" xmlns:xlink="http://www.w3.org/1999/xlink" width="50px" height="50px" xmlns="http://www.w3.org/2000/svg">
  <g transform="matrix(1 0 0 1 -792 -664 )">
    <path d="M 33.0891927083333 5.82682291666667  C 30.517578125 4.72005208333333  27.8211805555556 4.16666666666667  25 4.16666666666667  C 22.1788194444444 4.16666666666667  19.482421875 4.72005208333333  16.9108072916667 5.82682291666667  C 14.3391927083333 6.93359375  12.1256510416667 8.41471354166667  10.2701822916667 10.2701822916667  C 8.41471354166667 12.1256510416667  6.93359375 14.3391927083333  5.82682291666667 16.9108072916667  C 4.72005208333333 19.482421875  4.16666666666667 22.1788194444444  4.16666666666667 25  C 4.16666666666667 27.8211805555556  4.72005208333333 30.517578125  5.82682291666667 33.0891927083333  C 6.93359375 35.6608072916667  8.41471354166667 37.8743489583333  10.2701822916667 39.7298177083333  C 12.1256510416667 41.5852864583333  14.3391927083333 43.06640625  16.9108072916667 44.1731770833333  C 19.482421875 45.2799479166667  22.1788194444444 45.8333333333333  25 45.8333333333333  C 27.8211805555556 45.8333333333333  30.517578125 45.2799479166667  33.0891927083333 44.1731770833333  C 35.6608072916667 43.06640625  37.8743489583333 41.5852864583333  39.7298177083333 39.7298177083333  C 41.5852864583333 37.8743489583333  43.06640625 35.6608072916667  44.1731770833333 33.0891927083333  C 45.2799479166667 30.517578125  45.8333333333333 27.8211805555556  45.8333333333333 25  C 45.8333333333333 22.1788194444444  45.2799479166667 19.482421875  44.1731770833333 16.9108072916667  C 43.06640625 14.3391927083333  41.5852864583333 12.1256510416667  39.7298177083333 10.2701822916667  C 37.8743489583333 8.41471354166667  35.6608072916667 6.93359375  33.0891927083333 5.82682291666667  Z M 46.6471354166667 12.451171875  C 48.8823784722222 16.2814670138889  50 20.4644097222222  50 25  C 50 29.5355902777778  48.8823784722222 33.7185329861111  46.6471354166667 37.548828125  C 44.4118923611111 41.3791232638889  41.3791232638889 44.4118923611111  37.548828125 46.6471354166667  C 33.7185329861111 48.8823784722222  29.5355902777778 50  25 50  C 20.4644097222222 50  16.2814670138889 48.8823784722222  12.451171875 46.6471354166667  C 8.62087673611111 44.4118923611111  5.58810763888889 41.3791232638889  3.35286458333333 37.548828125  C 1.11762152777778 33.7185329861111  0 29.5355902777778  0 25  C 0 20.4644097222222  1.11762152777778 16.2814670138889  3.35286458333333 12.451171875  C 5.58810763888889 8.62087673611111  8.62087673611111 5.58810763888888  12.451171875 3.35286458333333  C 16.2814670138889 1.11762152777777  20.4644097222222 0  25 0  C 29.5355902777778 0  33.7185329861111 1.11762152777777  37.548828125 3.35286458333333  C 41.3791232638889 5.58810763888888  44.4118923611111 8.62087673611111  46.6471354166667 12.451171875  Z " fill-rule="nonzero" fill="#d7d7d7" stroke="none" transform="matrix(1 0 0 1 792 664 )" />
  </g>
</svg>