<?xml version="1.0" encoding="utf-8"?>
<svg version="1.1" xmlns:xlink="http://www.w3.org/1999/xlink" width="22px" height="23px" xmlns="http://www.w3.org/2000/svg">
  <g transform="matrix(1 0 0 1 -1472 -475 )">
    <path d="M 21.6025806451613 3.17508417508418  C 21.8675268817204 3.5364758698092  22 3.97530864197531  22 4.49158249158249  C 22 5.00785634118967  21.8675268817204 5.44668911335578  21.6025806451613 5.80808080808081  L 11.3264516129032 19.8249158249158  L 9.39612903225806 22.4579124579125  C 9.13118279569893 22.8193041526375  8.8094623655914 23  8.43096774193548 23  C 8.05247311827957 23  7.73075268817204 22.8193041526375  7.4658064516129 22.4579124579125  L 5.53548387096774 19.8249158249158  L 0.39741935483871 12.8164983164983  C 0.13247311827957 12.4551066217733  0 12.0162738496072  0 11.5  C 0 10.9837261503928  0.13247311827957 10.5448933782267  0.39741935483871 10.1835016835017  L 2.32774193548387 7.55050505050505  C 2.59268817204301 7.18911335578002  2.91440860215054 7.00841750841751  3.29290322580645 7.00841750841751  C 3.67139784946237 7.00841750841751  3.99311827956989 7.18911335578002  4.25806451612903 7.55050505050505  L 8.43096774193548 13.2617845117845  L 17.741935483871 0.542087542087542  C 18.0068817204301 0.180695847362513  18.3286021505376 0  18.7070967741935 0  C 19.0855913978495 0  19.407311827957 0.180695847362513  19.6722580645161 0.542087542087542  L 21.6025806451613 3.17508417508418  Z " fill-rule="nonzero" fill="#000000" stroke="none" transform="matrix(1 0 0 1 1472 475 )" />
  </g>
</svg>