<?xml version="1.0" encoding="utf-8"?>
<svg version="1.1" xmlns:xlink="http://www.w3.org/1999/xlink" width="65px" height="68px" xmlns="http://www.w3.org/2000/svg">
  <g transform="matrix(1 0 0 1 -165 -156 )">
    <path d="M 52.6888173302108 42.4667783361251  C 53.8431889149102 39.7710776102736  54.42037470726 36.9424902289224  54.42037470726 33.9810161920715  C 54.42037470726 31.0195421552205  53.8431889149102 28.1909547738693  52.6888173302108 25.4952540480179  C 51.5344457455113 22.7995533221664  49.9741412958626 20.4708728829332  48.0079039812646 18.5092127303183  C 46.0416666666667 16.5475525777033  43.7075526932084 14.9908803275637  41.0055620608899 13.8391959798995  C 38.3035714285714 12.6875116322352  35.4683840749415 12.1116694584031  32.5 12.1116694584031  C 29.5316159250585 12.1116694584031  26.6964285714286 12.6875116322352  23.9944379391101 13.8391959798995  C 21.2924473067916 14.9908803275637  18.9583333333333 16.5475525777033  16.9920960187354 18.5092127303183  C 15.0258587041374 20.4708728829332  13.4655542544887 22.7995533221664  12.3111826697892 25.4952540480179  C 11.1568110850898 28.1909547738693  10.57962529274 31.0195421552205  10.57962529274 33.9810161920715  C 10.57962529274 36.9424902289224  11.1568110850898 39.7710776102736  12.3111826697892 42.4667783361251  C 13.4655542544887 45.1624790619765  15.0258587041374 47.4911595012098  16.9920960187354 49.4528196538247  C 18.9583333333333 51.4144798064396  21.2924473067916 52.9711520565792  23.9944379391101 54.1228364042434  C 26.6964285714286 55.2745207519077  29.5316159250585 55.8503629257398  32.5 55.8503629257398  C 35.4683840749415 55.8503629257398  38.3035714285714 55.2745207519077  41.0055620608899 54.1228364042434  C 43.7075526932084 52.9711520565792  46.0416666666667 51.4144798064396  48.0079039812646 49.4528196538247  C 49.9741412958626 47.4911595012098  51.5344457455113 45.1624790619765  52.6888173302108 42.4667783361251  Z M 64.771662763466 43.3969849246231  C 65 43.7007258514796  65.0507416081187 44.0677461380979  64.923887587822 44.4980457844779  C 64.8224043715847 44.8777219430486  64.5686963309914 45.1308393820957  64.1627634660422 45.2573981016192  L 53 48.9022892238973  L 53 60.5203796761586  C 53.0503512880562 60.9253675786339  52.8854410616706 61.2544202493951  52.5556206088993 61.5075376884422  C 52.1750585480094 61.7606551274893  51.8071818891491 61.8112786152987  51.4519906323185 61.6594081518705  L 40.3395784543326 58.0904522613065  L 33.4894613583138 67.5064209938582  C 33.2357533177205 67.8354736646194  32.9059328649493 68  32.5 68  C 32.0940671350507 68  31.7642466822795 67.8354736646194  31.5105386416862 67.5064209938582  L 24.6604215456674 58.0904522613065  L 13.5480093676815 61.6594081518705  C 13.1928181108509 61.8112786152987  12.8249414519906 61.7606551274893  12.4443793911007 61.5075376884422  C 12.1145589383294 61.2544202493951  11.9496487119438 60.9253675786339  12 60.5203796761586  L 12 48.9022892238973  L 0.837236533957845 45.2573981016192  C 0.431303669008587 45.1308393820957  0.1775956284153 44.8777219430486  0.076112412177986 44.4980457844779  C -0.0507416081186571 44.0677461380979  0 43.7007258514796  0.228337236533958 43.3969849246231  L 7.07845433255269 33.9810161920715  L 0.228337236533958 24.5650474595198  C 0 24.2359947887586  -0.0507416081186571 23.8689745021403  0.076112412177986 23.463986599665  C 0.1775956284153 23.0843104410944  0.431303669008587 22.8311930020473  0.837236533957845 22.7046342825237  L 12 19.0597431602457  L 12 7.44165270798437  C 11.9496487119438 7.03666480550902  12.1145589383294 6.7076121347478  12.4443793911007 6.45449469570072  C 12.8249414519906 6.20137725665363  13.1928181108509 6.15075376884422  13.5480093676815 6.30262423227247  L 24.6604215456674 9.8715801228364  L 31.5105386416862 0.455611390284754  C 31.7388758782201 0.151870463428249  32.0686963309914 0  32.5 0  C 32.9313036690086 0  33.2611241217799 0.151870463428249  33.4894613583138 0.455611390284754  L 40.3395784543326 9.8715801228364  L 51.4519906323185 6.30262423227247  C 51.8071818891491 6.15075376884422  52.1750585480094 6.20137725665363  52.5556206088993 6.45449469570072  C 52.8854410616706 6.7076121347478  53.0503512880562 7.03666480550902  53 7.44165270798437  L 53 19.0597431602457  L 64.1627634660422 22.7046342825237  C 64.5686963309914 22.8311930020473  64.8224043715847 23.0843104410944  64.923887587822 23.463986599665  C 65.0507416081187 23.8689745021403  65 24.2359947887586  64.771662763466 24.5650474595198  L 57.9215456674473 33.9810161920715  L 64.771662763466 43.3969849246231  Z " fill-rule="nonzero" fill="#efbf1e" stroke="none" transform="matrix(1 0 0 1 165 156 )" />
  </g>
</svg>