<?xml version="1.0" encoding="utf-8"?>
<svg version="1.1" xmlns:xlink="http://www.w3.org/1999/xlink" width="54px" height="41px" xmlns="http://www.w3.org/2000/svg">
  <g transform="matrix(1 0 0 1 -871 -215 )">
    <path d="M 51.6375 22.8441051136364  C 53.2125 24.8727509469697  54 27.1974431818182  54 29.8181818181818  C 54 32.9048295454545  52.9453125 35.5401278409091  50.8359375 37.7240767045455  C 48.7265625 39.9080255681818  46.18125 41  43.2 41  L 12.6 41  C 9.13125 41  6.1640625 39.723603219697  3.6984375 37.1708096590909  C 1.2328125 34.6180160984848  0 31.545928030303  0 27.9545454545455  C 0 25.3920454545455  0.665625 23.0479403409091  1.996875 20.9222301136364  C 3.328125 18.7965198863636  5.08125 17.2095170454545  7.25625 16.1612215909091  C 7.21875 15.6176609848485  7.2 15.2002840909091  7.2 14.9090909090909  C 7.2 10.7935606060606  8.60625 7.27982954545455  11.41875 4.36789772727273  C 14.23125 1.45596590909091  17.625 0  21.6 0  C 24.5625 0  27.2484375 0.854166666666664  29.6578125 2.5625  C 32.0671875 4.27083333333333  33.825 6.50331439393939  34.93125 9.25994318181818  C 36.24375 8.05634469696969  37.8 7.45454545454545  39.6 7.45454545454545  C 41.5875 7.45454545454545  43.284375 8.18252840909091  44.690625 9.63849431818182  C 46.096875 11.0944602272727  46.8 12.8513257575758  46.8 14.9090909090909  C 46.8 16.3650568181818  46.415625 17.7045454545455  45.646875 18.9275568181818  C 48.065625 19.5099431818182  50.0625 20.815459280303  51.6375 22.8441051136364  Z " fill-rule="nonzero" fill="#555555" stroke="none" transform="matrix(1 0 0 1 871 215 )" />
  </g>
</svg>