<?xml version="1.0" encoding="utf-8"?>
<svg version="1.1" xmlns:xlink="http://www.w3.org/1999/xlink" width="32px" height="34px" xmlns="http://www.w3.org/2000/svg">
  <g transform="matrix(1 0 0 1 -858 -204 )">
    <path d="M 25.9391100702576 21.2333891680625  C 26.5074160811866 19.8855388051368  26.7915690866511 18.4712451144612  26.7915690866511 16.9905080960357  C 26.7915690866511 15.5097710776103  26.5074160811866 14.0954773869347  25.9391100702576 12.7476270240089  C 25.3708040593287 11.3997766610832  24.6026541764247 10.2354364414666  23.6346604215457 9.25460636515913  C 22.6666666666667 8.27377628885166  21.5175644028103 7.49544016378187  20.1873536299766 6.91959798994975  C 18.8571428571429 6.34375581611762  17.4613583138173 6.05583472920156  16 6.05583472920156  C 14.5386416861827 6.05583472920156  13.1428571428571 6.34375581611762  11.8126463700234 6.91959798994975  C 10.4824355971897 7.49544016378187  9.33333333333333 8.27377628885166  8.36533957845433 9.25460636515913  C 7.39734582357533 10.2354364414666  6.62919594067135 11.3997766610832  6.06088992974239 12.7476270240089  C 5.49258391881343 14.0954773869347  5.20843091334895 15.5097710776103  5.20843091334895 16.9905080960357  C 5.20843091334895 18.4712451144612  5.49258391881343 19.8855388051368  6.06088992974239 21.2333891680625  C 6.62919594067135 22.5812395309883  7.39734582357533 23.7455797506049  8.36533957845433 24.7264098269123  C 9.33333333333333 25.7072399032198  10.4824355971897 26.4855760282896  11.8126463700234 27.0614182021217  C 13.1428571428571 27.6372603759538  14.5386416861827 27.9251814628699  16 27.9251814628699  C 17.4613583138173 27.9251814628699  18.8571428571429 27.6372603759538  20.1873536299766 27.0614182021217  C 21.5175644028103 26.4855760282896  22.6666666666667 25.7072399032198  23.6346604215457 24.7264098269123  C 24.6026541764247 23.7455797506049  25.3708040593287 22.5812395309883  25.9391100702576 21.2333891680625  Z M 31.8875878220141 21.6984924623116  C 32 21.8503629257398  32.0249804839969 22.0338730690489  31.9625292740047 22.249022892239  C 31.9125683060109 22.4388609715243  31.7876658860265 22.5654196910478  31.5878220140515 22.6286990508096  L 26.1170960187354 24.4511446119486  L 26.1170960187354 30.2601898380793  C 26.1170960187354 30.462683789317  26.0359094457455 30.6272101246976  25.8735362997658 30.7537688442211  C 25.6861826697892 30.8803275637447  25.5050741608119 30.9056393076494  25.3302107728337 30.8297040759352  L 19.8594847775176 29.0452261306533  L 16.4871194379391 33.7532104969291  C 16.3622170179547 33.9177368323097  16.199843871975 34  16 34  C 15.800156128025 34  15.6377829820453 33.9177368323097  15.5128805620609 33.7532104969291  L 12.1405152224824 29.0452261306533  L 6.66978922716628 30.8297040759352  C 6.49492583918813 30.9056393076494  6.31381733021077 30.8803275637447  6.12646370023419 30.7537688442211  C 5.96409055425449 30.6272101246976  5.88290398126464 30.462683789317  5.88290398126464 30.2601898380793  L 5.88290398126464 24.4511446119486  L 0.412177985948478 22.6286990508096  C 0.212334113973458 22.5654196910478  0.087431693989071 22.4388609715243  0.0374707259953162 22.249022892239  C -0.0249804839968773 22.0338730690489  0 21.8503629257398  0.112412177985948 21.6984924623116  L 3.4847775175644 16.9905080960357  L 0.112412177985948 12.2825237297599  C 0 12.1179973943793  -0.0249804839968773 11.9344872510702  0.0374707259953162 11.7319932998325  C 0.087431693989071 11.5421552205472  0.212334113973458 11.4155965010236  0.412177985948478 11.3523171412619  L 5.88290398126464 9.52987158012284  L 5.88290398126464 3.72082635399218  C 5.88290398126464 3.51833240275451  5.96409055425449 3.3538060673739  6.12646370023419 3.22724734785036  C 6.31381733021077 3.10068862832682  6.49492583918813 3.07537688442211  6.66978922716628 3.15131211613624  L 12.1405152224824 4.9357900614182  L 15.5128805620609 0.227805695142377  C 15.6252927400468 0.0759352317141244  15.7876658860265 0  16 0  C 16.2123341139735 0  16.3747072599532 0.0759352317141244  16.4871194379391 0.227805695142377  L 19.8594847775176 4.9357900614182  L 25.3302107728337 3.15131211613624  C 25.5050741608119 3.07537688442211  25.6861826697892 3.10068862832682  25.8735362997658 3.22724734785036  C 26.0359094457455 3.3538060673739  26.1170960187354 3.51833240275451  26.1170960187354 3.72082635399218  L 26.1170960187354 9.52987158012284  L 31.5878220140515 11.3523171412619  C 31.7876658860265 11.4155965010236  31.9125683060109 11.5421552205472  31.9625292740047 11.7319932998325  C 32.0249804839969 11.9344872510702  32 12.1179973943793  31.8875878220141 12.2825237297599  L 28.5152224824356 16.9905080960357  L 31.8875878220141 21.6984924623116  Z " fill-rule="nonzero" fill="#555555" stroke="none" transform="matrix(1 0 0 1 858 204 )" />
  </g>
</svg>