<?xml version="1.0" encoding="utf-8"?>
<svg version="1.1" xmlns:xlink="http://www.w3.org/1999/xlink" width="33px" height="25px" xmlns="http://www.w3.org/2000/svg">
  <g transform="matrix(1 0 0 1 -613 -598 )">
    <path d="M 31.55625 13.9293323863636  C 32.51875 15.1663115530303  33 16.5838068181818  33 18.1818181818182  C 33 20.0639204545455  32.35546875 21.6708096590909  31.06640625 23.0024857954545  C 29.77734375 24.3341619318182  28.221875 25  26.4 25  L 7.7 25  C 5.58020833333333 25  3.76692708333333 24.221709280303  2.26015625 22.6651278409091  C 0.753385416666667 21.1085464015151  0 19.235321969697  0 17.0454545454545  C 0 15.4829545454545  0.406770833333333 14.0536221590909  1.2203125 12.7574573863636  C 2.03385416666667 11.4612926136364  3.10520833333333 10.4936079545455  4.434375 9.85440340909091  C 4.41145833333333 9.52296401515151  4.4 9.26846590909091  4.4 9.09090909090909  C 4.4 6.58143939393939  5.259375 4.43892045454546  6.978125 2.66335227272727  C 8.696875 0.887784090909091  10.7708333333333 0  13.2 0  C 15.0104166666667 0  16.6518229166667 0.520833333333331  18.12421875 1.5625  C 19.5966145833333 2.60416666666666  20.6708333333333 3.96543560606061  21.346875 5.64630681818182  C 22.1489583333333 4.9124053030303  23.1 4.54545454545454  24.2 4.54545454545454  C 25.4145833333333 4.54545454545454  26.4515625 4.98934659090909  27.3109375 5.87713068181818  C 28.1703125 6.76491477272727  28.6 7.83617424242424  28.6 9.09090909090909  C 28.6 9.97869318181818  28.3651041666667 10.7954545454545  27.8953125 11.5411931818182  C 29.3734375 11.8963068181818  30.59375 12.692353219697  31.55625 13.9293323863636  Z " fill-rule="nonzero" fill="#7f7f7f" stroke="none" transform="matrix(1 0 0 1 613 598 )" />
  </g>
</svg>