<?xml version="1.0" encoding="utf-8"?>
<svg version="1.1" xmlns:xlink="http://www.w3.org/1999/xlink" width="31px" height="35px" xmlns="http://www.w3.org/2000/svg">
  <g transform="matrix(1 0 0 1 -827 -588 )">
    <path d="M 15.5 16.471875  C 15.885016025641 16.471875  16.2824519230769 16.5520833333333  16.6923076923077 16.7125  L 16.6923076923077 29.4  C 16.6923076923077 30.9166666666667  16.2203525641026 32.2291666666667  15.2764423076923 33.3375  C 14.3325320512821 34.4458333333333  13.2147435897436 35  11.9230769230769 35  C 10.6314102564103 35  9.5136217948718 34.4458333333333  8.56971153846154 33.3375  C 7.62580128205128 32.2291666666667  7.15384615384615 30.9166666666667  7.15384615384615 29.4  C 7.15384615384615 29.0208333333333  7.27183493589744 28.6927083333333  7.5078125 28.415625  C 7.74379006410256 28.1385416666667  8.02323717948718 28  8.34615384615384 28  C 8.66907051282051 28  8.94851762820513 28.1385416666667  9.18449519230769 28.415625  C 9.42047275641026 28.6927083333333  9.53846153846154 29.0208333333333  9.53846153846154 29.4  C 9.53846153846154 30.1291666666667  9.78064903846154 30.778125  10.2650240384615 31.346875  C 10.7493990384615 31.915625  11.3020833333333 32.2  11.9230769230769 32.2  C 12.5440705128205 32.2  13.0967548076923 31.915625  13.5811298076923 31.346875  C 14.0655048076923 30.778125  14.3076923076923 30.1291666666667  14.3076923076923 29.4  L 14.3076923076923 16.7125  C 14.7175480769231 16.5520833333333  15.114983974359 16.471875  15.5 16.471875  Z M 30.9813701923077 17.15  C 30.9937900641026 17.1791666666667  31 17.2302083333333  31 17.303125  C 31 17.4927083333333  30.9410056089744 17.6567708333333  30.8230168269231 17.7953125  C 30.7050280448718 17.9338541666667  30.5653044871795 18.003125  30.4038461538462 18.003125  C 30.2672275641026 18.003125  30.1243990384615 17.9302083333333  29.9753605769231 17.784375  C 29.3667868589744 17.1135416666667  28.7892628205128 16.6104166666667  28.2427884615385 16.275  C 27.6963141025641 15.9395833333333  27.0629006410256 15.771875  26.3425480769231 15.771875  C 25.4979967948718 15.771875  24.703125 16.0416666666667  23.9579326923077 16.58125  C 23.2127403846154 17.1208333333333  22.5731169871795 17.828125  22.0390625 18.703125  C 21.9521233974359 18.8489583333333  21.8434495192308 19.053125  21.7130408653846 19.315625  C 21.5826322115385 19.578125  21.4925881410256 19.753125  21.4429086538462 19.840625  C 21.3062900641026 20.0885416666667  21.1324118589744 20.2125  20.9212740384615 20.2125  C 20.6977163461538 20.2125  20.5176282051282 20.0885416666667  20.3810096153846 19.840625  C 20.3313301282051 19.753125  20.2412860576923 19.578125  20.1108774038462 19.315625  C 19.98046875 19.053125  19.8717948717949 18.8489583333333  19.7848557692308 18.703125  C 19.2508012820513 17.828125  18.6142828525641 17.1208333333333  17.8753004807692 16.58125  C 17.1363181089744 16.0416666666667  16.3445512820513 15.771875  15.5 15.771875  C 14.6554487179487 15.771875  13.8636818910256 16.0416666666667  13.1246995192308 16.58125  C 12.3857171474359 17.1208333333333  11.7491987179487 17.828125  11.2151442307692 18.703125  C 11.1282051282051 18.8489583333333  11.01953125 19.053125  10.8891225961538 19.315625  C 10.7587139423077 19.578125  10.6686698717949 19.753125  10.6189903846154 19.840625  C 10.4823717948718 20.0885416666667  10.3022836538462 20.2125  10.0787259615385 20.2125  C 9.86758814102564 20.2125  9.69370993589744 20.0885416666667  9.55709134615384 19.840625  C 9.50741185897436 19.753125  9.41736778846154 19.578125  9.28695913461539 19.315625  C 9.15655048076923 19.053125  9.0478766025641 18.8489583333333  8.9609375 18.703125  C 8.42688301282051 17.828125  7.78725961538462 17.1208333333333  7.04206730769231 16.58125  C 6.296875 16.0416666666667  5.50200320512821 15.771875  4.65745192307692 15.771875  C 3.93709935897436 15.771875  3.3036858974359 15.9395833333333  2.75721153846154 16.275  C 2.21073717948718 16.6104166666667  1.63321314102564 17.1135416666667  1.02463942307692 17.784375  C 0.875600961538462 17.9302083333333  0.732772435897436 18.003125  0.596153846153846 18.003125  C 0.434695512820513 18.003125  0.294971955128205 17.9338541666667  0.176983173076923 17.7953125  C 0.058994391025641 17.6567708333333  0 17.4927083333333  0 17.303125  C 0 17.2302083333333  0.0062099358974359 17.1791666666667  0.0186298076923077 17.15  C 0.577524038461539 14.48125  1.64873798076923 12.1515625  3.23227163461538 10.1609375  C 4.81580528846154 8.1703125  6.66636618589744 6.67916666666667  8.78395432692308 5.6875  C 10.9015424679487 4.69583333333333  13.1402243589744 4.2  15.5 4.2  C 17.2387820512821 4.2  18.9434094551282 4.49166666666667  20.6138822115385 5.075  C 22.2843549679487 5.65833333333333  23.8151041666667 6.4859375  25.2061298076923 7.5578125  C 26.597155448718 8.6296875  27.8049879807692 9.99322916666667  28.8296274038462 11.6484375  C 29.8542668269231 13.3036458333333  30.5715144230769 15.1375  30.9813701923077 17.15  Z M 16.3383413461538 0.415624999999999  C 16.5743189102564 0.692708333333329  16.6923076923077 1.02083333333333  16.6923076923077 1.4  L 16.6923076923077 3.54375  C 16.1706730769231 3.51458333333333  15.7732371794872 3.5  15.5 3.5  C 15.2267628205128 3.5  14.8293269230769 3.51458333333333  14.3076923076923 3.54375  L 14.3076923076923 1.4  C 14.3076923076923 1.02083333333333  14.4256810897436 0.692708333333329  14.6616586538462 0.415624999999999  C 14.8976362179487 0.138541666666665  15.1770833333333 0  15.5 0  C 15.8229166666667 0  16.1023637820513 0.138541666666665  16.3383413461538 0.415624999999999  Z " fill-rule="nonzero" fill="#555555" stroke="none" transform="matrix(1 0 0 1 827 588 )" />
  </g>
</svg>