<?xml version="1.0" encoding="utf-8"?>
<svg version="1.1" xmlns:xlink="http://www.w3.org/1999/xlink" width="32px" height="32px" xmlns="http://www.w3.org/2000/svg">
  <g transform="matrix(1 0 0 1 -919 -512 )">
    <path d="M 935 512  C 943.96 512  951 519.04  951 528  C 951 536.96  943.96 544  935 544  C 926.04 544  919 536.96  919 528  C 919 519.04  926.04 512  935 512  Z " fill-rule="nonzero" fill="#ffffff" stroke="none" />
    <path d="M 935 512.5  C 943.68 512.5  950.5 519.32  950.5 528  C 950.5 536.68  943.68 543.5  935 543.5  C 926.32 543.5  919.5 536.68  919.5 528  C 919.5 519.32  926.32 512.5  935 512.5  Z " stroke-width="1" stroke="#797979" fill="none" />
  </g>
</svg>