<?xml version="1.0" encoding="utf-8"?>
<svg version="1.1" xmlns:xlink="http://www.w3.org/1999/xlink" width="21px" height="38px" xmlns="http://www.w3.org/2000/svg">
  <g transform="matrix(1 0 0 1 -1396 -2324 )">
    <path d="M 20.7545454545455 8.66435185185185  C 20.9909090909091 8.89891975308642  21.0363636363636 9.15547839506173  20.8909090909091 9.43402777777778  C 20.7272727272727 9.71257716049382  20.4636363636364 9.85185185185185  20.1 9.85185185185185  L 14 9.85185185185185  L 14 37.2962962962963  C 13.9909090909091 37.5015432098765  13.9090909090909 37.6701388888889  13.7454545454545 37.8020833333333  C 13.5818181818182 37.9340277777778  13.3727272727273 38  13.1181818181818 38  L 7.88181818181818 38  C 7.62727272727273 38  7.41818181818182 37.9340277777778  7.25454545454545 37.8020833333333  C 7.09090909090909 37.6701388888889  7.00909090909091 37.5015432098765  7 37.2962962962963  L 7 9.85185185185185  L 0.9 9.85185185185185  C 0.518181818181818 9.85185185185185  0.254545454545455 9.71257716049382  0.109090909090909 9.43402777777778  C -0.0363636363636364 9.15547839506173  0.00909090909090907 8.89891975308642  0.245454545454545 8.66435185185185  L 9.79090909090909 0.219907407407409  C 9.97272727272727 0.0733024691358017  10.1818181818182 0  10.4181818181818 0  C 10.6727272727273 0  10.8909090909091 0.0733024691358017  11.0727272727273 0.219907407407409  L 20.7545454545455 8.66435185185185  Z " fill-rule="nonzero" fill="#000000" stroke="none" transform="matrix(1 0 0 1 1396 2324 )" />
  </g>
</svg>