<?xml version="1.0" encoding="utf-8"?>
<svg version="1.1" xmlns:xlink="http://www.w3.org/1999/xlink" width="43px" height="43px" xmlns="http://www.w3.org/2000/svg">
  <g transform="matrix(1 0 0 1 -874 -651 )">
    <path d="M 0 30.5223214285714  C 0 26.1231398809524  2.05694760820046 22.3958333333333  6.17084282460137 19.3404017857143  C 6.04024297646166 19.0364583333333  5.9749430523918 18.6205357142857  5.9749430523918 18.0926339285714  C 5.9749430523918 17.7726934523809  6.06473044798785 17.3807663690476  6.24430523917995 16.9168526785714  C 6.42388003037206 16.4529389880952  6.61977980258163 16.0930059523809  6.83200455580866 15.8370535714286  C 6.81567957479119 15.485119047619  6.87689825360668 15.0611979166667  7.01566059225512 14.5652901785714  C 7.15442293090357 14.0693824404762  7.33807896735004 13.7254464285714  7.56662870159453 13.5334821428571  C 7.56662870159453 11.3098958333333  8.32165907365224 9.00232514880952  9.83171981776765 6.61077008928572  C 11.3417805618831 4.21921502976191  13.1171222475323 2.54352678571429  15.1577448747153 1.58370535714285  C 17.4269172361427 0.527901785714285  20.0715641609719 0  23.0916856492027 0  C 25.2629081245254 0  27.4341305998481 0.43991815476191  29.6053530751708 1.31975446428571  C 30.4052771450266 1.65569196428571  31.1399012908125 2.03962053571429  31.8092255125285 2.47154017857143  C 32.4785497342445 2.90345982142857  33.0580865603645 3.35137648809524  33.5478359908884 3.81529017857143  C 34.0375854214123 4.27920386904762  34.4865223993926 4.82310267857143  34.8946469248292 5.44698660714286  C 35.3027714502658 6.07087053571428  35.6455960516325 6.66276041666667  35.9231207289294 7.22265625  C 36.2006454062263 7.78255208333333  36.4659263477601 8.45842633928572  36.7189635535308 9.25027901785714  C 36.9720007593014 10.0421316964286  37.1801442672741 10.7579985119048  37.3433940774488 11.3978794642857  C 37.5066438876234 12.0377604166667  37.6862186788155 12.8216145833333  37.8821184510251 13.7494419642857  L 37.9066059225513 13.8694196428571  C 38.8044798785118 15.1971726190476  39.253416856492 16.3969494047619  39.253416856492 17.46875  C 39.253416856492 17.6927083333333  39.1799544419134 18.0126488095238  39.0330296127563 18.4285714285714  C 38.8861047835991 18.844494047619  38.8126423690205 19.1484375  38.8126423690205 19.3404017857143  C 38.8126423690205 19.3563988095238  38.8248861047836 19.3843936011905  38.8493735763098 19.4243861607143  C 38.873861047836 19.4643787202381  38.9024297646166 19.5043712797619  38.9350797266515 19.5443638392857  C 38.9677296886864 19.5843563988095  38.9840546697039 19.6123511904762  38.9840546697039 19.6283482142857  C 40.2410782080486 21.4520089285714  41.2246583143508 23.1676897321429  41.9347949886105 24.775390625  C 42.6449316628702 26.3830915178571  43 28.05078125  43 29.7784598214286  C 43 30.4663318452381  42.8408314350797 31.2661830357143  42.5224943052392 32.1780133928571  C 42.2041571753986 33.08984375  41.751138952164 33.5457589285714  41.1634396355353 33.5457589285714  C 41.0165148063781 33.5457589285714  40.8573462414579 33.4857700892857  40.6859339407745 33.3657924107143  C 40.5145216400911 33.2458147321429  40.3594343204252 33.1058407738095  40.2206719817768 32.9458705357143  C 40.0819096431283 32.785900297619  39.9268223234624 32.5779389880952  39.755410022779 32.3219866071429  C 39.5839977220957 32.0660342261905  39.453397873956 31.8540736607143  39.3636104783599 31.6861049107143  C 39.2738230827639 31.5181361607143  39.163629460896 31.3101748511905  39.0330296127563 31.0622209821429  C 38.9024297646166 30.8142671130952  38.828967350038 30.6742931547619  38.8126423690205 30.6422991071429  C 38.796317388003 30.6263020833333  38.7718299164768 30.6183035714286  38.7391799544419 30.6183035714286  L 38.6167425968109 30.7142857142857  C 37.6535687167806 33.1778273809524  36.5761199696279 34.9614955357143  35.3843963553531 36.0652901785714  C 35.7108959757024 36.3852306547619  36.2128891419894 36.6931733630952  36.8903758542141 36.9891183035714  C 37.5678625664389 37.2850632440476  38.1310744115414 37.6170014880952  38.5800113895216 37.9849330357143  C 39.0289483675019 38.3528645833333  39.3187167805619 38.8727678571429  39.4493166287016 39.5446428571429  C 39.4166666666667 39.608630952381  39.3840167046317 39.7366071428571  39.3513667425968 39.9285714285714  C 39.3187167805619 40.1205357142857  39.2615793470008 40.2645089285714  39.1799544419134 40.3604910714286  C 38.1351556567958 41.9122023809524  35.6700835231587 42.6880580357143  31.7847380410023 42.6880580357143  C 30.9195140470767 42.6880580357143  30.0175588458618 42.6160714285714  29.0788724373576 42.4720982142857  C 28.1401860288535 42.328125  27.3402619589977 42.1681547619048  26.6791002277904 41.9921875  C 26.0179384965831 41.8162202380952  25.1649582384207 41.5762648809524  24.120159453303 41.2723214285714  C 23.875284738041 41.1923363095238  23.6875474563402 41.1363467261905  23.5569476082005 41.1043526785714  C 23.328397873956 41.0403645833333  22.9529233105543 41.0043712797619  22.4305239179954 40.9963727678571  C 21.9081245254366 40.9883742559524  21.5816249050873 40.9763764880952  21.4510250569476 40.9603794642857  C 20.7817008352316 41.6802455357143  19.7409832953683 42.2001488095238  18.3288724373576 42.5200892857143  C 16.916761579347 42.8400297619048  15.5413819286257 43  14.2027334851936 43  C 13.6313591495824 43  13.0681473044799 42.9880022321429  12.5130979498861 42.9640066964286  C 11.9580485952923 42.9400111607143  11.1989369779803 42.8680245535714  10.2357630979499 42.748046875  C 9.27258921791951 42.6280691964286  8.44817767653759 42.464099702381  7.7625284738041 42.2561383928571  C 7.07687927107061 42.0481770833333  6.46877372817008 41.7282366071429  5.93821184510251 41.2963169642857  C 5.40764996203493 40.8643973214286  5.14236902050114 40.3524925595238  5.14236902050114 39.7606026785714  C 5.14236902050114 39.1207217261905  5.22399392558846 38.6448102678571  5.3872437357631 38.3328683035714  C 5.55049354593774 38.0209263392857  5.88515565679575 37.6329985119048  6.39123006833713 37.1690848214286  C 6.57080485952923 37.1370907738095  6.90138572513288 37.0331101190476  7.38297266514806 36.8571428571429  C 7.86455960516325 36.6811755952381  8.26860288534548 36.585193452381  8.59510250569476 36.5691964285714  C 8.66040242976462 36.5691964285714  8.77467729688687 36.5531994047619  8.9379271070615 36.5212053571429  C 8.97057706909643 36.4892113095238  8.9869020501139 36.4572172619048  8.9869020501139 36.4252232142857  L 8.9379271070615 36.3532366071429  C 8.15432801822323 36.1772693452381  7.27277904328018 35.3334263392857  6.29328018223235 33.8217075892857  C 5.31378132118451 32.3099888392857  4.71791951404708 31.0582217261905  4.50569476082005 30.06640625  L 4.38325740318907 29.9944196428571  C 4.31795747911921 29.9944196428571  4.22000759301443 30.1543898809524  4.08940774487472 30.4743303571429  C 3.79555808656036 31.1302083333333  3.35070235383447 31.7260974702381  2.75484054669704 32.2619977678571  C 2.15897873955961 32.7978980654762  1.52638572513288 33.0978422619048  0.857061503416857 33.1618303571429  L 0.832574031890661 33.1618303571429  C 0.767274107820805 33.1618303571429  0.718299164768413 33.1258370535714  0.685649202733485 33.0538504464286  C 0.652999240698557 32.9818638392857  0.612186788154897 32.9378720238095  0.563211845102506 32.921875  C 0.187737281700835 32.0580357142857  0 31.2581845238095  0 30.5223214285714  Z " fill-rule="nonzero" fill="#555555" stroke="none" transform="matrix(1 0 0 1 874 651 )" />
  </g>
</svg>